<?xml version="1.0" standalone="no"?>
<!DOCTYPE svg PUBLIC "-//W3C//DTD SVG 20010904//EN"
 "http://www.w3.org/TR/2001/REC-SVG-20010904/DTD/svg10.dtd">
<svg version="1.0" xmlns="http://www.w3.org/2000/svg"
 width="700.000000pt" height="700.000000pt" viewBox="0 0 700.000000 700.000000"
 preserveAspectRatio="xMidYMid meet">
<metadata>
Created by potrace 1.11, written by Peter Selinger 2001-2013
</metadata>
<g transform="translate(0.000000,700.000000) scale(0.100000,-0.100000)"
fill="#000000" stroke="none">
<path d="M899 6317 c-29 -16 -54 -40 -74 -72 l-30 -48 -3 -625 -2 -624 24 -53
c17 -38 37 -62 67 -82 l43 -28 560 -3 561 -2 1 -123 c3 -319 157 -621 409
-803 73 -53 218 -119 314 -143 117 -29 295 -29 412 0 422 105 718 494 723 946
l1 123 1087 0 c741 0 1096 3 1115 11 48 18 102 79 118 133 22 74 22 1198 0
1272 -15 53 -57 100 -112 128 -29 15 -258 16 -2601 16 l-2569 0 -44 -23z
m4931 -757 l0 -370 -1032 0 -1033 1 -35 56 c-47 77 -169 198 -258 257 -248
164 -561 197 -833 86 -157 -64 -338 -211 -419 -343 l-35 -56 -492 -1 -493 0 0
370 0 370 2315 0 2315 0 0 -370z m-2770 -228 l0 -79 53 -12 c75 -17 164 -61
219 -110 56 -50 106 -146 110 -211 l3 -45 -122 -3 -121 -3 -7 31 c-11 51 -83
120 -125 120 -6 0 -10 -44 -10 -123 l0 -123 85 -16 c159 -30 255 -92 303 -197
33 -72 28 -180 -11 -257 -55 -109 -186 -202 -315 -227 l-62 -12 0 -83 0 -83
-117 3 -118 3 -3 81 -3 81 -57 18 c-174 54 -303 189 -330 343 l-9 52 126 0
127 0 12 -44 c14 -53 61 -110 102 -125 l30 -10 0 133 0 134 -70 16 c-141 32
-232 92 -277 184 -23 48 -28 69 -27 132 0 88 29 155 94 220 46 46 152 102 228
120 l52 12 0 79 0 79 120 0 120 0 0 -78z"/>
<path d="M2762 5052 c-33 -31 -49 -84 -38 -128 9 -34 53 -74 82 -74 24 0 24 1
24 115 0 106 -1 115 -19 115 -10 0 -33 -13 -49 -28z"/>
<path d="M3100 4430 l0 -93 38 6 c67 8 130 42 138 73 4 15 2 34 -3 43 -17 27
-69 51 -122 58 l-51 6 0 -93z"/>
<path d="M4835 4326 c-330 -54 -620 -288 -750 -606 -88 -218 -98 -495 -25
-720 66 -201 215 -403 383 -519 186 -128 420 -187 639 -162 397 45 729 340
838 746 31 113 38 318 16 443 -68 388 -359 707 -732 802 -100 26 -267 33 -369
16z m455 -696 c0 -179 4 -300 9 -300 5 0 21 4 35 9 23 10 25 7 52 -65 15 -41
24 -78 20 -81 -4 -4 -31 -17 -59 -28 l-52 -21 -3 -212 -2 -212 -80 0 -80 0 0
181 0 180 -22 -7 c-44 -14 -50 -9 -74 51 -34 88 -33 91 36 116 l60 22 0 333 0
334 80 0 80 0 0 -300z m-222 29 c3 -66 2 -68 -147 -409 -83 -188 -153 -351
-156 -361 -6 -18 2 -19 149 -19 l156 0 0 -75 0 -75 -265 0 -265 0 0 54 c0 47
18 95 154 405 l154 351 -154 0 -154 0 0 100 0 100 263 -2 262 -3 3 -66z"/>
<path d="M2212 3245 c-109 -20 -207 -52 -304 -100 -569 -282 -807 -989 -529
-1571 62 -130 115 -208 210 -307 383 -403 965 -469 1427 -162 432 288 620 862
449 1371 -135 401 -478 698 -889 769 -106 18 -264 18 -364 0z m449 -444 c123
-47 234 -157 279 -278 25 -68 45 -212 31 -226 -5 -5 -58 -6 -134 -2 l-125 7
-4 59 c-5 71 -43 132 -103 166 -34 19 -55 23 -143 23 -120 0 -158 -14 -216
-81 -56 -66 -53 -69 84 -69 l120 0 0 -135 0 -135 -130 0 -130 0 0 -45 0 -45
130 0 131 0 -3 -137 -3 -138 -117 -3 c-98 -2 -118 -5 -118 -18 0 -26 92 -109
136 -122 63 -18 191 -15 239 7 77 34 125 113 125 204 l0 37 130 0 130 0 0 -63
c0 -175 -111 -348 -275 -428 l-70 -34 -165 0 -165 0 -75 36 c-152 73 -247 194
-284 362 -6 27 -8 27 -81 27 l-75 0 0 135 0 135 76 0 75 0 -3 43 -3 42 -72 3
-73 3 0 134 0 134 76 3 77 3 13 52 c34 131 137 259 258 318 94 47 138 55 281
51 93 -3 133 -8 176 -25z"/>
</g>
</svg>
