<?xml version="1.0" standalone="no"?>
<!DOCTYPE svg PUBLIC "-//W3C//DTD SVG 20010904//EN"
 "http://www.w3.org/TR/2001/REC-SVG-20010904/DTD/svg10.dtd">
<svg version="1.0" xmlns="http://www.w3.org/2000/svg"
 width="700.000000pt" height="700.000000pt" viewBox="0 0 700.000000 700.000000"
 preserveAspectRatio="xMidYMid meet">
<metadata>
Created by potrace 1.11, written by Peter Selinger 2001-2013
</metadata>
<g transform="translate(0.000000,700.000000) scale(0.100000,-0.100000)"
fill="#000000" stroke="none">
<path d="M656 4907 c1 -821 2 -1495 3 -1499 0 -4 736 -7 1634 -7 897 0 1655 0
1682 0 l50 -1 24 -67 c53 -154 183 -300 341 -386 106 -58 199 -80 333 -79 269
3 517 167 632 419 14 29 27 64 31 78 3 14 10 28 15 31 5 3 225 5 489 5 l480 1
0 1498 0 1499 -2858 0 -2857 0 1 -1492z m5034 -7 l0 -816 -214 0 -215 1 -46
47 c-176 182 -427 255 -671 198 -99 -24 -226 -94 -309 -172 l-78 -73 -1396 -1
c-768 -1 -1403 0 -1411 2 -13 3 -15 101 -13 816 1 447 2 813 2 813 1 1 980 1
2176 1 l2175 0 0 -816z"/>
<path d="M3390 5651 c-82 -18 -186 -63 -252 -109 -120 -83 -229 -230 -279
-375 -38 -111 -49 -183 -44 -302 16 -400 321 -719 700 -730 126 -4 215 14 322
66 200 96 340 267 405 494 38 135 26 390 -23 485 -4 8 -13 30 -20 49 -38 103
-178 266 -283 329 -61 37 -172 85 -226 96 -72 16 -223 14 -300 -3z"/>
<path d="M1790 3246 c-211 -62 -375 -203 -466 -401 -49 -105 -65 -176 -69
-295 -6 -146 27 -297 86 -395 10 -16 26 -45 35 -63 22 -43 136 -159 194 -199
142 -96 253 -128 430 -127 320 3 602 237 685 569 19 73 25 238 12 310 -55 305
-275 543 -563 610 -98 23 -249 19 -344 -9z"/>
<path d="M4065 2423 c-280 -58 -507 -270 -581 -544 -26 -95 -28 -283 -3 -379
73 -286 306 -505 599 -560 55 -11 207 -14 245 -6 307 65 515 242 606 516 116
353 -49 744 -385 908 -45 22 -112 48 -151 57 -92 23 -242 26 -330 8z"/>
</g>
</svg>
