<?xml version="1.0" standalone="no"?>
<!DOCTYPE svg PUBLIC "-//W3C//DTD SVG 20010904//EN"
 "http://www.w3.org/TR/2001/REC-SVG-20010904/DTD/svg10.dtd">
<svg version="1.0" xmlns="http://www.w3.org/2000/svg"
 width="892.000000pt" height="892.000000pt" viewBox="0 0 892.000000 892.000000"
 preserveAspectRatio="xMidYMid meet">
<metadata>
Created by potrace 1.11, written by Peter Selinger 2001-2013
</metadata>
<g transform="translate(0.000000,892.000000) scale(0.100000,-0.100000)"
fill="#000000" stroke="none">
<path d="M0 6407 l0 -2213 28 2 c15 1 27 3 27 4 0 5 47 6 50 0 5 -8 60 -5 74
5 6 3 11 3 11 -2 0 -10 91 -10 107 0 6 4 14 4 17 -1 4 -6 61 -8 61 -2 0 5 47
6 50 0 5 -8 60 -5 74 5 6 3 11 3 11 -2 0 -4 24 -7 53 -6 28 0 52 2 52 3 0 5
47 6 50 0 5 -8 60 -5 74 5 6 3 11 2 11 -2 0 -10 41 -10 57 0 7 4 14 4 17 -1 6
-9 59 -8 75 3 6 3 11 2 11 -2 0 -10 41 -10 57 0 7 4 14 4 17 -1 5 -9 47 -9 63
1 7 4 14 4 16 0 4 -7 112 -9 112 -3 0 5 47 6 50 0 5 -8 60 -5 74 5 6 3 11 3
11 -2 0 -4 24 -7 53 -6 28 0 52 2 52 3 0 5 46 6 50 0 5 -8 48 -6 62 3 7 4 14
4 17 -1 5 -9 47 -9 63 1 7 4 14 4 17 -1 6 -9 59 -8 75 3 6 3 11 2 11 -2 0 -10
41 -10 57 0 7 4 14 4 17 -1 6 -9 59 -8 75 3 6 3 11 3 11 -2 0 -4 24 -7 53 -6
28 0 52 2 52 3 0 5 47 6 50 0 5 -8 60 -5 74 5 6 3 11 3 11 -2 0 -10 91 -10
107 0 6 4 14 4 17 -1 4 -6 61 -8 61 -2 0 5 47 6 50 0 5 -8 60 -5 74 5 6 3 11
3 11 -2 0 -4 24 -7 53 -6 28 0 52 2 52 3 0 5 47 6 50 0 5 -8 60 -5 74 5 6 3
11 2 11 -2 0 -10 41 -10 57 0 7 4 14 4 17 -1 6 -9 59 -8 75 3 6 3 11 2 11 -2
0 -10 41 -10 57 0 7 4 14 4 17 -1 5 -9 47 -9 63 1 7 4 14 4 16 0 4 -7 112 -9
112 -3 0 5 47 6 50 0 5 -8 60 -5 74 5 6 3 11 3 11 -2 0 -4 24 -7 53 -6 28 0
52 2 52 3 0 5 46 6 50 0 5 -8 48 -6 62 3 7 4 14 4 17 -1 5 -9 47 -9 63 1 7 4
14 4 17 -1 6 -9 59 -8 75 3 6 3 11 2 11 -2 0 -10 41 -10 57 0 7 4 14 4 17 -1
6 -9 59 -8 75 3 6 3 11 3 11 -2 0 -4 24 -7 53 -6 28 0 52 2 52 3 0 5 47 6 50
0 5 -8 60 -5 74 5 6 3 11 3 11 -2 0 -10 91 -10 107 0 6 4 14 4 17 -1 4 -6 61
-8 61 -2 0 5 47 6 50 0 5 -8 60 -5 74 5 6 3 11 3 11 -2 0 -4 24 -7 53 -6 28 0
52 2 52 3 0 5 47 6 50 0 5 -8 60 -5 74 5 6 3 11 2 11 -2 0 -10 41 -10 57 0 7
4 14 4 17 -1 6 -9 59 -8 75 3 6 3 11 2 11 -2 0 -10 41 -10 57 0 7 4 14 4 17
-1 5 -9 47 -9 63 1 7 4 14 4 16 0 4 -7 112 -9 112 -3 0 5 47 6 50 0 5 -8 60
-5 74 5 6 3 11 2 11 -3 0 -4 16 -7 35 -6 25 2 35 -1 36 -11 2 -17 1 -14 18
-75 19 -71 86 -237 100 -250 4 -3 15 -22 26 -42 36 -66 98 -148 166 -216 74
-75 143 -132 158 -132 6 0 11 -5 11 -11 0 -5 15 -16 33 -24 19 -8 39 -21 47
-29 7 -9 17 -16 22 -16 6 0 32 -11 59 -24 54 -28 189 -78 189 -71 0 2 12 0 28
-6 79 -31 354 -45 457 -24 17 4 38 7 48 8 9 1 17 5 17 10 0 4 4 6 8 3 8 -5 69
8 102 21 8 4 17 7 20 8 59 15 232 99 238 116 2 5 8 9 13 9 36 0 252 199 305
280 16 25 35 52 43 60 43 44 163 345 164 408 0 7 5 11 11 9 6 -2 21 0 34 4 12
5 22 5 22 1 0 -4 39 -6 87 -5 49 1 88 2 88 3 0 5 47 6 50 0 5 -8 60 -5 74 5 6
3 11 3 11 -2 0 -10 91 -10 107 0 6 4 14 4 17 -1 4 -6 61 -8 61 -2 0 5 47 6 50
0 5 -8 60 -5 74 5 6 3 11 3 11 -2 0 -4 24 -7 53 -6 28 0 52 2 52 3 0 5 47 6
50 0 5 -8 60 -5 74 5 6 3 11 2 11 -2 0 -10 41 -10 57 0 7 4 14 4 17 -1 6 -9
59 -8 75 3 6 3 11 3 11 -2 0 -9 103 -9 118 1 6 3 13 3 15 -1 6 -10 122 -7 138
3 7 4 9 3 6 -3 -4 -5 6 -8 24 -5 l29 4 0 2209 0 2209 -4460 0 -4460 0 0 -2213z
m1572 1373 c123 1 230 1 238 1 8 0 116 0 240 0 124 0 232 0 240 0 8 0 98 0
200 0 102 0 192 0 200 1 8 0 44 0 80 -1 36 0 72 0 80 0 8 1 44 1 80 0 36 0 72
0 80 0 8 1 44 1 80 0 36 0 72 0 80 0 8 1 44 1 80 0 36 0 72 0 80 0 8 1 44 1
80 0 36 0 72 0 80 0 8 1 44 1 80 0 36 0 72 0 80 0 8 1 44 1 80 0 36 0 72 0 80
0 8 1 98 1 200 0 102 0 192 0 200 0 8 0 116 0 240 0 124 0 232 0 240 0 8 0
116 0 240 0 124 0 232 0 240 0 8 0 116 0 240 0 124 0 232 0 240 0 8 0 116 0
240 0 124 0 232 0 240 0 8 0 98 0 200 0 102 0 192 0 200 1 8 0 44 0 80 -1 36
0 72 0 80 0 8 1 44 1 80 0 36 0 72 0 80 0 8 1 44 1 80 0 36 0 72 0 80 0 8 1
44 1 80 0 36 0 72 0 80 0 8 1 44 1 80 0 36 0 72 0 80 0 8 1 44 1 80 0 36 0 72
0 80 0 8 1 44 1 80 0 36 0 72 0 80 0 8 1 96 0 195 -1 99 -1 185 -1 190 0 40 9
46 -9 45 -142 0 -16 0 -45 0 -65 -1 -86 -1 -119 -1 -130 1 -14 1 -24 1 -83 0
-47 0 -57 0 -107 0 -21 -1 -56 -1 -78 0 -22 0 -46 0 -52 2 -29 1 -40 -2 -83
-2 -25 0 -55 5 -67 4 -13 4 -23 0 -23 -8 0 -7 -74 2 -89 4 -5 2 -12 -3 -15 -5
-4 -6 -18 -2 -34 4 -15 4 -41 1 -58 -4 -18 -4 -37 0 -44 4 -7 4 -24 0 -39 -4
-14 -3 -38 1 -53 5 -17 4 -28 -2 -28 -6 0 -8 -4 -5 -8 5 -8 6 -44 6 -127 -1
-95 -1 -121 -1 -132 1 -18 1 -37 0 -120 -1 -39 2 -77 6 -82 3 -6 3 -11 -2 -11
-9 0 -8 -82 1 -105 3 -8 2 -15 -2 -15 -8 0 -7 -74 2 -89 4 -5 2 -12 -3 -15 -5
-4 -6 -18 -2 -34 4 -15 4 -41 1 -58 -4 -18 -4 -37 0 -44 4 -6 5 -24 3 -38 -2
-15 -4 -43 -4 -62 0 -19 0 -53 0 -75 0 -22 0 -46 0 -52 1 -14 1 -24 1 -83 0
-47 0 -57 0 -107 0 -21 -1 -56 -1 -78 0 -22 0 -46 0 -52 2 -26 1 -49 -1 -102
-3 -50 -5 -55 -29 -62 -15 -3 -32 -3 -39 1 -6 4 -29 4 -51 0 -22 -4 -56 -4
-74 0 -19 4 -36 6 -38 3 -3 -2 -119 -4 -258 -4 l-254 1 -20 24 c-11 13 -31 39
-45 57 -34 48 -168 180 -210 209 -19 13 -37 27 -40 30 -9 10 -124 75 -181 102
-66 31 -204 75 -262 84 -23 4 -50 11 -59 16 -11 5 -18 5 -18 -1 0 -6 -11 -6
-28 -2 -44 13 -250 5 -337 -14 -151 -31 -273 -80 -407 -163 -32 -19 -58 -38
-58 -41 0 -4 -12 -14 -27 -23 -36 -21 -151 -133 -188 -183 -17 -22 -33 -42
-36 -45 -3 -3 -11 -15 -17 -26 -11 -21 -42 -27 -127 -26 -11 1 -42 1 -70 1
-27 0 -57 0 -65 1 -8 0 -31 0 -50 -1 -19 -1 -44 -1 -55 -1 -11 0 -42 1 -70 1
-27 0 -57 0 -65 1 -8 0 -31 0 -50 -1 -19 -1 -44 -1 -55 -1 -11 0 -42 1 -70 1
-27 0 -57 0 -65 1 -8 0 -31 0 -50 -1 -19 -1 -44 -1 -55 -1 -11 0 -42 1 -70 1
-27 0 -57 0 -65 1 -8 0 -31 0 -50 -1 -19 -1 -44 -1 -55 -1 -11 0 -42 1 -70 1
-27 0 -56 0 -62 0 -29 2 -40 2 -93 2 -30 -1 -62 0 -70 0 -45 2 -1541 0 -1570
-1 -19 -2 -44 -2 -55 -2 -11 0 -42 1 -70 1 -27 0 -57 0 -65 1 -8 0 -31 0 -50
-1 -19 -1 -44 -1 -55 -1 -11 0 -42 1 -70 1 -27 0 -57 0 -65 1 -8 0 -31 0 -50
-1 -19 -1 -44 -1 -55 -1 -11 0 -42 1 -70 1 -27 0 -57 0 -65 1 -8 0 -31 0 -50
-1 -19 -1 -44 -1 -55 -1 -11 0 -42 1 -70 1 -27 0 -57 0 -65 1 -8 0 -31 0 -50
-1 -19 -1 -44 -1 -55 -1 -11 0 -42 1 -70 1 -27 0 -56 0 -62 0 -29 2 -40 2 -93
2 -30 -1 -62 0 -70 0 -15 0 -99 0 -135 -1 -120 -1 -151 2 -162 17 -8 11 -9 22
-3 34 6 10 6 20 2 23 -4 2 -5 32 -2 64 3 33 2 72 -1 86 -4 14 -4 26 -1 26 7 0
7 138 0 145 -2 2 -1 31 2 64 3 32 2 71 -1 85 -4 14 -4 26 -1 26 8 0 6 244 -1
257 -2 4 -1 17 3 27 3 11 4 37 0 58 -4 20 -5 39 -3 42 6 6 7 236 1 242 -3 2
-2 21 1 42 4 20 4 58 1 85 -4 26 -4 47 -1 47 7 0 5 405 -2 417 -2 4 -1 17 3
27 3 11 4 37 0 58 -4 20 -5 40 -2 43 7 6 7 73 1 80 -3 2 -2 31 1 64 3 32 2 71
-1 85 -4 14 -4 26 -1 26 7 0 7 138 0 145 -2 2 -1 31 2 64 3 32 2 71 -1 85 -4
14 -4 26 -1 26 4 0 6 56 5 125 l-2 124 240 0 c132 0 243 2 246 5 3 3 9 3 14 0
5 -2 109 -4 231 -4z"/>
<path d="M4447 7554 c-1 -1 -36 -4 -77 -8 -74 -6 -186 -27 -197 -36 -2 -2 -6
-3 -10 -4 -51 -12 -199 -74 -235 -98 -14 -10 -31 -18 -37 -18 -6 0 -11 -5 -11
-11 0 -5 -4 -7 -10 -4 -5 3 -10 2 -10 -2 0 -5 -12 -16 -27 -25 -44 -26 -93
-68 -163 -139 -118 -119 -179 -209 -250 -374 -23 -53 -51 -137 -56 -170 -2
-11 -9 -54 -16 -95 -22 -119 -14 -329 17 -444 90 -343 301 -607 612 -766 42
-22 83 -40 89 -40 6 0 24 -7 41 -15 16 -8 40 -17 54 -19 13 -2 24 -5 24 -6 0
-7 178 -36 213 -36 23 1 42 -1 42 -4 0 -3 18 -5 39 -5 22 0 37 3 34 7 -2 5 7
4 21 -2 14 -5 27 -6 30 -1 3 4 21 7 41 6 19 -1 38 2 41 7 3 4 9 6 14 3 5 -3
28 -1 52 5 24 6 52 12 63 14 32 4 138 43 201 73 241 112 442 309 551 536 12
26 23 51 23 55 1 4 5 12 10 17 9 12 48 130 55 166 5 27 13 62 21 99 3 14 7 79
9 146 2 107 -1 156 -18 244 -3 14 -8 43 -13 65 -4 22 -13 54 -20 70 -7 17 -12
32 -13 35 -5 43 -90 207 -153 294 -159 219 -358 355 -653 446 -57 17 -315 44
-328 34z"/>
<path d="M1875 3889 c-136 -18 -254 -51 -354 -99 -34 -17 -66 -30 -71 -30 -6
0 -10 -3 -10 -8 0 -4 -13 -13 -29 -20 -94 -42 -279 -215 -359 -337 -15 -22
-29 -42 -32 -45 -3 -3 -20 -33 -38 -67 -52 -100 -91 -211 -118 -338 -30 -144
-19 -368 25 -513 5 -18 10 -33 10 -35 0 -1 5 -15 11 -32 7 -16 13 -38 15 -48
7 -35 106 -210 153 -271 85 -111 260 -271 322 -294 8 -3 17 -8 20 -11 4 -6
113 -60 165 -82 38 -17 105 -38 105 -34 0 3 11 0 25 -5 26 -10 47 -15 120 -27
75 -14 326 -6 400 11 83 20 99 24 103 26 1 2 5 3 10 4 48 11 192 75 262 117
56 34 161 118 215 173 81 83 96 103 173 221 16 25 80 157 82 170 1 6 6 18 12
28 23 44 54 187 63 292 4 38 8 72 10 75 2 3 0 23 -5 43 -5 23 -4 37 2 37 5 0
7 3 5 8 -3 4 -8 31 -12 61 -4 30 -9 63 -11 75 -2 12 -7 37 -10 56 -10 59 -64
209 -100 277 -36 68 -83 145 -93 153 -3 3 -19 22 -34 43 -35 46 -139 150 -187
186 -19 14 -41 32 -48 39 -7 6 -17 12 -22 12 -5 0 -15 6 -22 13 -13 11 -30 22
-75 46 -43 24 -152 69 -193 81 -25 7 -52 15 -60 18 -24 8 -73 18 -140 28 -56
8 -230 10 -285 3z"/>
<path d="M5464 2601 c-3 -3 -11 -6 -19 -7 -7 -1 -32 -5 -55 -8 -58 -8 -114
-23 -195 -53 -71 -26 -223 -103 -247 -126 -8 -7 -29 -23 -48 -36 -72 -50 -178
-157 -232 -232 -56 -77 -145 -237 -153 -273 -1 -6 -5 -18 -8 -26 -16 -42 -37
-120 -43 -155 -3 -22 -8 -43 -10 -46 -4 -7 -17 -170 -16 -199 6 -140 22 -236
59 -350 30 -91 93 -230 105 -230 4 0 8 -5 8 -11 0 -19 114 -164 181 -230 38
-37 97 -87 133 -113 58 -41 211 -125 247 -135 8 -2 39 -12 69 -23 53 -18 75
-24 135 -34 17 -3 35 -9 40 -13 12 -8 311 -7 368 2 20 3 42 9 47 12 6 4 26 8
45 11 103 13 332 124 440 214 56 46 225 223 225 235 0 4 10 21 23 38 37 52
107 185 107 203 0 3 7 20 15 37 53 116 82 366 62 532 -11 88 -45 225 -66 270
-22 46 -64 140 -65 145 -3 11 -82 128 -115 170 -40 50 -192 200 -203 200 -3 0
-13 6 -20 13 -20 20 -132 87 -145 87 -6 0 -13 4 -15 8 -7 20 -224 94 -308 107
-25 4 -58 9 -75 12 -36 7 -265 10 -271 4z"/>
</g>
</svg>
