<?xml version="1.0" standalone="no"?>
<!DOCTYPE svg PUBLIC "-//W3C//DTD SVG 20010904//EN"
 "http://www.w3.org/TR/2001/REC-SVG-20010904/DTD/svg10.dtd">
<svg version="1.0" xmlns="http://www.w3.org/2000/svg"
 width="700.000000pt" height="700.000000pt" viewBox="0 0 700.000000 700.000000"
 preserveAspectRatio="xMidYMid meet">
<metadata>
Created by potrace 1.11, written by Peter Selinger 2001-2013
</metadata>
<g transform="translate(0.000000,700.000000) scale(0.100000,-0.100000)"
fill="#000000" stroke="none">
<path d="M6 5153 c1 -1017 2 -1853 3 -1858 1 -7 688 -10 2040 -10 1122 0 2042
-3 2045 -6 3 -3 8 -23 12 -44 3 -21 19 -75 35 -121 115 -327 393 -564 720
-615 69 -11 233 -8 288 5 133 30 263 89 360 161 17 13 172 168 186 186 61 80
143 253 164 349 7 30 15 62 17 70 3 13 72 15 551 14 302 0 553 1 558 3 7 2 10
617 10 1856 l0 1852 -3495 3 -3495 2 1 -1847z m6320 1138 c7 -1 11 -339 11
-1151 l0 -1150 -293 0 -292 0 -45 63 c-333 466 -976 512 -1361 96 -36 -39 -78
-90 -93 -115 l-28 -44 -1781 0 -1781 0 0 1150 0 1149 21 3 c18 3 5613 2 5642
-1z"/>
<path d="M3478 6104 c-2 -1 -30 -5 -64 -8 -68 -7 -143 -27 -226 -62 -297 -124
-513 -419 -563 -769 -8 -56 -8 -225 1 -282 44 -302 231 -578 484 -716 117 -64
239 -99 370 -104 101 -5 143 -1 249 21 83 18 204 74 291 134 182 127 320 332
382 566 27 103 34 325 12 434 -40 209 -130 381 -273 523 -124 123 -246 194
-405 234 -76 19 -248 39 -258 29z"/>
<path d="M1371 3004 c-108 -27 -183 -61 -274 -121 -171 -114 -313 -303 -377
-503 -39 -121 -45 -165 -45 -325 1 -131 5 -175 23 -242 31 -120 78 -226 143
-322 282 -422 815 -530 1225 -249 433 296 547 930 248 1380 -55 82 -170 202
-235 244 -24 16 -46 31 -49 34 -13 14 -112 60 -175 83 -147 52 -330 60 -484
21z"/>
<path d="M4253 1934 c-401 -68 -717 -417 -762 -844 -52 -488 233 -933 679
-1060 117 -34 297 -36 419 -4 334 85 583 340 677 690 21 81 26 123 27 234 2
153 -3 194 -38 315 -90 308 -309 539 -607 641 -40 13 -74 24 -76 23 -1 0 -21
2 -44 6 -71 12 -200 12 -275 -1z"/>
</g>
</svg>
